ffmpeg started on 2025-05-13 at 09:58:46
Report written to "D:\Convert\FFMetrics\reports\ssim_report-6.txt"
Log level: 32
Command line:
ffmpeg -hide_banner -nostdin -i "G:\\\xc0\xed\xe8\xec\xe5\\\xce\xed\xe3\xee\xe8\xed\xe3\xe8\\!_35_\xcb\xe5\xf2\xee_2024\\DreamCast-1\\\xd1\xeb\xe8\xf8\xea\xee\xec \xec\xed\xee\xe3\xee \xef\xf0\xee\xe8\xe3\xf0\xe0\xe2\xf8\xe8\xf5 \xe3\xe5\xf0\xee\xe8\xed\xfc!\\[DC] Make Heroine ga Oosugiru - 11_Telegram_HEVC.mkv" -i "G:\\\xc0\xed\xe8\xec\xe5\\\xce\xed\xe3\xee\xe8\xed\xe3\xe8\\!_35_\xcb\xe5\xf2\xee_2024\\DreamCast-1\\\xd1\xeb\xe8\xf8\xea\xee\xec \xec\xed\xee\xe3\xee \xef\xf0\xee\xe8\xe3\xf0\xe0\xe2\xf8\xe8\xf5 \xe3\xe5\xf0\xee\xe8\xed\xfc!\\[DC] Make Heroine ga Oosugiru - 11_Telegram.mp4" -lavfi "[0:v]settb=AVTB,setpts=PTS-STARTPTS,format=pix_fmts=yuv420p10,fps=24000/1001,scale=1920:1080:flags=bicubic[main];[1:v]settb=AVTB,setpts=PTS-STARTPTS,format=pix_fmts=yuv420p,fps=24000/1001,scale=1920:1080:flags=bicubic[ref];[main][ref]ssim=eof_action=endall:stats_file='D\\:/Convert/FFMetrics/logs/ssim_logfile-6.txt'" -f null -
Input #0, matroska,webm, from 'G:\Аниме\Онгоинги\!_35_Лето_2024\DreamCast-1\Слишком много проигравших героинь!\[DC] Make Heroine ga Oosugiru - 11_Telegram_HEVC.mkv':
  Metadata:
    COMPATIBLE_BRANDS: isomiso2avc1mp41
    MAJOR_BRAND     : isom
    MINOR_VERSION   : 512
    ENCODER         : Lavf61.7.100
  Duration: 00:24:06.70, start: -0.021000, bitrate: 792 kb/s
  Stream #0:0: Video: hevc (Main 10), yuv420p10le(tv, bt709, progressive), 1920x1080 [SAR 1:1 DAR 16:9], 23.98 fps, 23.98 tbr, 1k tbn (default)
      Metadata:
        HANDLER_NAME    : VideoHandler
        VENDOR_ID       : [0][0][0][0]
        ENCODER         : Lavc61.19.100 libx265
        BPS             : 595839
        DURATION        : 00:24:06.486708333
        NUMBER_OF_FRAMES: 34681
        NUMBER_OF_BYTES : 107734098
        _STATISTICS_WRITING_APP: mkvpropedit v66.0.0 ('Josie') 64-bit
        _STATISTICS_WRITING_DATE_UTC: 2025-05-11 11:24:41
        _STATISTICS_TAGS: BPS DURATION NUMBER_OF_FRAMES NUMBER_OF_BYTES
  Stream #0:1: Audio: aac (LC), 48000 Hz, stereo, fltp (default)
      Metadata:
        HANDLER_NAME    : SoundHandler
        VENDOR_ID       : [0][0][0][0]
        ENCODER         : Lavc61.19.100 aac
        BPS             : 192998
        DURATION        : 00:24:06.698000000
        NUMBER_OF_FRAMES: 67815
        NUMBER_OF_BYTES : 34901262
        _STATISTICS_WRITING_APP: mkvpropedit v66.0.0 ('Josie') 64-bit
        _STATISTICS_WRITING_DATE_UTC: 2025-05-11 11:24:41
        _STATISTICS_TAGS: BPS DURATION NUMBER_OF_FRAMES NUMBER_OF_BYTES
Input #1, mov,mp4,m4a,3gp,3g2,mj2, from 'G:\Аниме\Онгоинги\!_35_Лето_2024\DreamCast-1\Слишком много проигравших героинь!\[DC] Make Heroine ga Oosugiru - 11_Telegram.mp4':
  Metadata:
    major_brand     : isom
    minor_version   : 512
    compatible_brands: isomiso2avc1mp41
    encoder         : Lavf61.1.100
  Duration: 00:24:06.65, start: 0.000000, bitrate: 3644 kb/s
  Stream #1:0[0x1](und): Video: h264 (High) (avc1 / 0x31637661), yuv420p(tv, bt709, progressive), 1920x1080 [SAR 1:1 DAR 16:9], 3497 kb/s, 23.98 fps, 23.98 tbr, 24k tbn (default)
      Metadata:
        handler_name    : VideoHandler
        vendor_id       : [0][0][0][0]
        encoder         : Lavc61.3.100 h264_qsv
  Stream #1:1[0x2](und): Audio: aac (HE-AACv2) (mp4a / 0x6134706D), 48000 Hz, stereo, fltp, 144 kb/s (default)
      Metadata:
        handler_name    : SoundHandler
        vendor_id       : [0][0][0][0]
Stream mapping:
  Stream #0:0 (hevc) -> settb:default
  Stream #1:0 (h264) -> settb:default
  ssim:default -> Stream #0:0 (wrapped_avframe)
  Stream #0:1 -> #0:1 (aac (native) -> pcm_s16le (native))
Output #0, null, to 'pipe:':
  Metadata:
    COMPATIBLE_BRANDS: isomiso2avc1mp41
    MAJOR_BRAND     : isom
    MINOR_VERSION   : 512
    encoder         : Lavf61.7.100
  Stream #0:0: Video: wrapped_avframe, yuv420p10le(tv, bt709, progressive), 1920x1080 [SAR 1:1 DAR 16:9], q=2-31, 200 kb/s, 23.98 fps, 23.98 tbn
      Metadata:
        encoder         : Lavc61.19.100 wrapped_avframe
  Stream #0:1: Audio: pcm_s16le, 48000 Hz, stereo, s16, 1536 kb/s (default)
      Metadata:
        HANDLER_NAME    : SoundHandler
        VENDOR_ID       : [0][0][0][0]
        _STATISTICS_TAGS: BPS DURATION NUMBER_OF_FRAMES NUMBER_OF_BYTES
        BPS             : 192998
        DURATION        : 00:24:06.698000000
        NUMBER_OF_FRAMES: 67815
        NUMBER_OF_BYTES : 34901262
        _STATISTICS_WRITING_APP: mkvpropedit v66.0.0 ('Josie') 64-bit
        _STATISTICS_WRITING_DATE_UTC: 2025-05-11 11:24:41
        encoder         : Lavc61.19.100 pcm_s16le
frame=  167 fps=0.0 q=-0.0 size=N/A time=00:00:06.96 bitrate=N/A speed=13.5x    frame=  424 fps=413 q=-0.0 size=N/A time=00:00:17.68 bitrate=N/A speed=17.2x    frame=  654 fps=422 q=-0.0 size=N/A time=00:00:27.27 bitrate=N/A speed=17.6x    frame=  913 fps=444 q=-0.0 size=N/A time=00:00:38.07 bitrate=N/A speed=18.5x    frame= 1192 fps=462 q=-0.0 size=N/A time=00:00:49.71 bitrate=N/A speed=19.3x    frame= 1467 fps=474 q=-0.0 size=N/A time=00:01:01.18 bitrate=N/A speed=19.8x    frame= 1748 fps=485 q=-0.0 size=N/A time=00:01:12.90 bitrate=N/A speed=20.2x    frame= 2032 fps=493 q=-0.0 size=N/A time=00:01:24.75 bitrate=N/A speed=20.6x    frame= 2312 fps=498 q=-0.0 size=N/A time=00:01:36.42 bitrate=N/A speed=20.8x    frame= 2584 fps=501 q=-0.0 size=N/A time=00:01:47.77 bitrate=N/A speed=20.9x    frame= 2859 fps=504 q=-0.0 size=N/A time=00:01:59.24 bitrate=N/A speed=  21x    frame= 3117 fps=504 q=-0.0 size=N/A time=00:02:10.00 bitrate=N/A speed=  21x    frame= 3412 fps=509 q=-0.0 size=N/A time=00:02:22.30 bitrate=N/A speed=21.2x    frame= 3697 fps=513 q=-0.0 size=N/A time=00:02:34.19 bitrate=N/A speed=21.4x    frame= 3982 fps=515 q=-0.0 size=N/A time=00:02:46.08 bitrate=N/A speed=21.5x    frame= 4227 fps=513 q=-0.0 size=N/A time=00:02:56.30 bitrate=N/A speed=21.4x    frame= 4468 fps=510 q=-0.0 size=N/A time=00:03:06.35 bitrate=N/A speed=21.3x    frame= 4726 fps=509 q=-0.0 size=N/A time=00:03:17.11 bitrate=N/A speed=21.2x    frame= 4993 fps=509 q=-0.0 size=N/A time=00:03:28.24 bitrate=N/A speed=21.2x    frame= 5235 fps=508 q=-0.0 size=N/A time=00:03:38.34 bitrate=N/A speed=21.2x    frame= 5449 fps=503 q=-0.0 size=N/A time=00:03:47.26 bitrate=N/A speed=  21x    frame= 5691 fps=502 q=-0.0 size=N/A time=00:03:57.36 bitrate=N/A speed=20.9x    frame= 5951 fps=502 q=-0.0 size=N/A time=00:04:08.20 bitrate=N/A speed=20.9x    frame= 6206 fps=501 q=-0.0 size=N/A time=00:04:18.84 bitrate=N/A speed=20.9x    frame= 6492 fps=503 q=-0.0 size=N/A time=00:04:30.77 bitrate=N/A speed=  21x    frame= 6759 fps=503 q=-0.0 size=N/A time=00:04:41.90 bitrate=N/A speed=  21x    frame= 7007 fps=503 q=-0.0 size=N/A time=00:04:52.25 bitrate=N/A speed=  21x    frame= 7273 fps=503 q=-0.0 size=N/A time=00:05:03.34 bitrate=N/A speed=  21x    frame= 7553 fps=505 q=-0.0 size=N/A time=00:05:15.02 bitrate=N/A speed=  21x    frame= 7834 fps=506 q=-0.0 size=N/A time=00:05:26.74 bitrate=N/A speed=21.1x    frame= 8112 fps=507 q=-0.0 size=N/A time=00:05:38.33 bitrate=N/A speed=21.2x    frame= 8389 fps=508 q=-0.0 size=N/A time=00:05:49.89 bitrate=N/A speed=21.2x    frame= 8672 fps=509 q=-0.0 size=N/A time=00:06:01.69 bitrate=N/A speed=21.2x    frame= 8928 fps=509 q=-0.0 size=N/A time=00:06:12.37 bitrate=N/A speed=21.2x    frame= 9191 fps=509 q=-0.0 size=N/A time=00:06:23.34 bitrate=N/A speed=21.2x    frame= 9465 fps=509 q=-0.0 size=N/A time=00:06:34.76 bitrate=N/A speed=21.2x    frame= 9726 fps=510 q=-0.0 size=N/A time=00:06:45.65 bitrate=N/A speed=21.3x    frame= 9988 fps=509 q=-0.0 size=N/A time=00:06:56.58 bitrate=N/A speed=21.2x    frame=10265 fps=510 q=-0.0 size=N/A time=00:07:08.13 bitrate=N/A speed=21.3x    frame=10528 fps=510 q=-0.0 size=N/A time=00:07:19.10 bitrate=N/A speed=21.3x    frame=10805 fps=511 q=-0.0 size=N/A time=00:07:30.65 bitrate=N/A speed=21.3x    frame=11066 fps=511 q=-0.0 size=N/A time=00:07:41.54 bitrate=N/A speed=21.3x    frame=11328 fps=510 q=-0.0 size=N/A time=00:07:52.47 bitrate=N/A speed=21.3x    frame=11597 fps=511 q=-0.0 size=N/A time=00:08:03.69 bitrate=N/A speed=21.3x    frame=11883 fps=512 q=-0.0 size=N/A time=00:08:15.62 bitrate=N/A speed=21.3x    frame=12157 fps=512 q=-0.0 size=N/A time=00:08:27.04 bitrate=N/A speed=21.4x    frame=12432 fps=513 q=-0.0 size=N/A time=00:08:38.51 bitrate=N/A speed=21.4x    frame=12670 fps=512 q=-0.0 size=N/A time=00:08:48.44 bitrate=N/A speed=21.3x    frame=12870 fps=509 q=-0.0 size=N/A time=00:08:56.78 bitrate=N/A speed=21.2x    frame=13115 fps=509 q=-0.0 size=N/A time=00:09:07.00 bitrate=N/A speed=21.2x    frame=13383 fps=509 q=-0.0 size=N/A time=00:09:18.18 bitrate=N/A speed=21.2x    frame=13651 fps=509 q=-0.0 size=N/A time=00:09:29.36 bitrate=N/A speed=21.2x    frame=13916 fps=509 q=-0.0 size=N/A time=00:09:40.41 bitrate=N/A speed=21.2x    frame=14174 fps=509 q=-0.0 size=N/A time=00:09:51.17 bitrate=N/A speed=21.2x    frame=14409 fps=508 q=-0.0 size=N/A time=00:10:00.97 bitrate=N/A speed=21.2x    frame=14648 fps=507 q=-0.0 size=N/A time=00:10:10.94 bitrate=N/A speed=21.1x    frame=14884 fps=506 q=-0.0 size=N/A time=00:10:20.78 bitrate=N/A speed=21.1x    frame=15114 fps=505 q=-0.0 size=N/A time=00:10:30.37 bitrate=N/A speed=21.1x    frame=15376 fps=505 q=-0.0 size=N/A time=00:10:41.30 bitrate=N/A speed=21.1x    frame=15646 fps=505 q=-0.0 size=N/A time=00:10:52.56 bitrate=N/A speed=21.1x    frame=15912 fps=506 q=-0.0 size=N/A time=00:11:03.66 bitrate=N/A speed=21.1x    frame=16187 fps=506 q=-0.0 size=N/A time=00:11:15.13 bitrate=N/A speed=21.1x    frame=16452 fps=506 q=-0.0 size=N/A time=00:11:26.18 bitrate=N/A speed=21.1x    frame=16710 fps=506 q=-0.0 size=N/A time=00:11:36.94 bitrate=N/A speed=21.1x    frame=16976 fps=506 q=-0.0 size=N/A time=00:11:48.04 bitrate=N/A speed=21.1x    frame=17252 fps=507 q=-0.0 size=N/A time=00:11:59.55 bitrate=N/A speed=21.1x    frame=17516 fps=507 q=-0.0 size=N/A time=00:12:10.56 bitrate=N/A speed=21.1x    frame=17784 fps=507 q=-0.0 size=N/A time=00:12:21.74 bitrate=N/A speed=21.1x    frame=18043 fps=507 q=-0.0 size=N/A time=00:12:32.54 bitrate=N/A speed=21.1x    frame=18301 fps=507 q=-0.0 size=N/A time=00:12:43.30 bitrate=N/A speed=21.1x    frame=18572 fps=507 q=-0.0 size=N/A time=00:12:54.60 bitrate=N/A speed=21.1x    frame=18816 fps=507 q=-0.0 size=N/A time=00:13:04.78 bitrate=N/A speed=21.1x    frame=19085 fps=507 q=-0.0 size=N/A time=00:13:16.00 bitrate=N/A speed=21.1x    frame=19323 fps=506 q=-0.0 size=N/A time=00:13:25.93 bitrate=N/A speed=21.1x    frame=19591 fps=506 q=-0.0 size=N/A time=00:13:37.10 bitrate=N/A speed=21.1x    frame=19857 fps=506 q=-0.0 size=N/A time=00:13:48.20 bitrate=N/A speed=21.1x    frame=20095 fps=506 q=-0.0 size=N/A time=00:13:58.12 bitrate=N/A speed=21.1x    frame=20352 fps=506 q=-0.0 size=N/A time=00:14:08.84 bitrate=N/A speed=21.1x    frame=20624 fps=506 q=-0.0 size=N/A time=00:14:20.19 bitrate=N/A speed=21.1x    frame=20890 fps=506 q=-0.0 size=N/A time=00:14:31.28 bitrate=N/A speed=21.1x    frame=21171 fps=507 q=-0.0 size=N/A time=00:14:43.00 bitrate=N/A speed=21.1x    frame=21429 fps=507 q=-0.0 size=N/A time=00:14:53.76 bitrate=N/A speed=21.1x    frame=21681 fps=506 q=-0.0 size=N/A time=00:15:04.27 bitrate=N/A speed=21.1x    frame=21947 fps=507 q=-0.0 size=N/A time=00:15:15.37 bitrate=N/A speed=21.1x    frame=22220 fps=507 q=-0.0 size=N/A time=00:15:26.75 bitrate=N/A speed=21.1x    frame=22479 fps=507 q=-0.0 size=N/A time=00:15:37.56 bitrate=N/A speed=21.1x    frame=22732 fps=507 q=-0.0 size=N/A time=00:15:48.11 bitrate=N/A speed=21.1x    frame=22966 fps=506 q=-0.0 size=N/A time=00:15:57.87 bitrate=N/A speed=21.1x    frame=23207 fps=506 q=-0.0 size=N/A time=00:16:07.92 bitrate=N/A speed=21.1x    frame=23465 fps=505 q=-0.0 size=N/A time=00:16:18.68 bitrate=N/A speed=21.1x    frame=23722 fps=505 q=-0.0 size=N/A time=00:16:29.40 bitrate=N/A speed=21.1x    frame=24008 fps=506 q=-0.0 size=N/A time=00:16:41.33 bitrate=N/A speed=21.1x    frame=24301 fps=507 q=-0.0 size=N/A time=00:16:53.55 bitrate=N/A speed=21.1x    frame=24580 fps=507 q=-0.0 size=N/A time=00:17:05.19 bitrate=N/A speed=21.1x    frame=24858 fps=507 q=-0.0 size=N/A time=00:17:16.78 bitrate=N/A speed=21.2x    frame=25146 fps=508 q=-0.0 size=N/A time=00:17:28.79 bitrate=N/A speed=21.2x    frame=25420 fps=508 q=-0.0 size=N/A time=00:17:40.22 bitrate=N/A speed=21.2x    frame=25691 fps=508 q=-0.0 size=N/A time=00:17:51.52 bitrate=N/A speed=21.2x    frame=25909 fps=507 q=-0.0 size=N/A time=00:18:00.62 bitrate=N/A speed=21.2x    frame=26178 fps=507 q=-0.0 size=N/A time=00:18:11.84 bitrate=N/A speed=21.2x    frame=26447 fps=508 q=-0.0 size=N/A time=00:18:23.06 bitrate=N/A speed=21.2x    frame=26703 fps=508 q=-0.0 size=N/A time=00:18:33.73 bitrate=N/A speed=21.2x    frame=26979 fps=508 q=-0.0 size=N/A time=00:18:45.24 bitrate=N/A speed=21.2x    frame=27235 fps=508 q=-0.0 size=N/A time=00:18:55.92 bitrate=N/A speed=21.2x    frame=27519 fps=508 q=-0.0 size=N/A time=00:19:07.77 bitrate=N/A speed=21.2x    frame=27795 fps=508 q=-0.0 size=N/A time=00:19:19.28 bitrate=N/A speed=21.2x    frame=28064 fps=509 q=-0.0 size=N/A time=00:19:30.50 bitrate=N/A speed=21.2x    frame=28329 fps=509 q=-0.0 size=N/A time=00:19:41.55 bitrate=N/A speed=21.2x    frame=28571 fps=508 q=-0.0 size=N/A time=00:19:51.64 bitrate=N/A speed=21.2x    frame=28840 fps=508 q=-0.0 size=N/A time=00:20:02.86 bitrate=N/A speed=21.2x    frame=29110 fps=509 q=-0.0 size=N/A time=00:20:14.12 bitrate=N/A speed=21.2x    frame=29387 fps=509 q=-0.0 size=N/A time=00:20:25.68 bitrate=N/A speed=21.2x    frame=29661 fps=509 q=-0.0 size=N/A time=00:20:37.11 bitrate=N/A speed=21.2x    frame=29913 fps=509 q=-0.0 size=N/A time=00:20:47.62 bitrate=N/A speed=21.2x    frame=30151 fps=508 q=-0.0 size=N/A time=00:20:57.54 bitrate=N/A speed=21.2x    frame=30406 fps=508 q=-0.0 size=N/A time=00:21:08.18 bitrate=N/A speed=21.2x    frame=30657 fps=508 q=-0.0 size=N/A time=00:21:18.65 bitrate=N/A speed=21.2x    frame=30921 fps=508 q=-0.0 size=N/A time=00:21:29.66 bitrate=N/A speed=21.2x    frame=31179 fps=508 q=-0.0 size=N/A time=00:21:40.42 bitrate=N/A speed=21.2x    frame=31443 fps=508 q=-0.0 size=N/A time=00:21:51.43 bitrate=N/A speed=21.2x    frame=31713 fps=508 q=-0.0 size=N/A time=00:22:02.69 bitrate=N/A speed=21.2x    frame=31985 fps=508 q=-0.0 size=N/A time=00:22:14.04 bitrate=N/A speed=21.2x    frame=32247 fps=508 q=-0.0 size=N/A time=00:22:24.96 bitrate=N/A speed=21.2x    frame=32496 fps=508 q=-0.0 size=N/A time=00:22:35.35 bitrate=N/A speed=21.2x    frame=32728 fps=508 q=-0.0 size=N/A time=00:22:45.03 bitrate=N/A speed=21.2x    frame=32929 fps=507 q=-0.0 size=N/A time=00:22:53.41 bitrate=N/A speed=21.1x    frame=33142 fps=506 q=-0.0 size=N/A time=00:23:02.29 bitrate=N/A speed=21.1x    frame=33316 fps=505 q=-0.0 size=N/A time=00:23:09.55 bitrate=N/A speed=  21x    frame=33478 fps=503 q=-0.0 size=N/A time=00:23:16.31 bitrate=N/A speed=  21x    frame=33645 fps=502 q=-0.0 size=N/A time=00:23:23.27 bitrate=N/A speed=20.9x    frame=33842 fps=501 q=-0.0 size=N/A time=00:23:31.49 bitrate=N/A speed=20.9x    frame=34048 fps=500 q=-0.0 size=N/A time=00:23:40.08 bitrate=N/A speed=20.9x    frame=34241 fps=499 q=-0.0 size=N/A time=00:23:48.13 bitrate=N/A speed=20.8x    frame=34413 fps=498 q=-0.0 size=N/A time=00:23:55.30 bitrate=N/A speed=20.8x    frame=34627 fps=497 q=-0.0 size=N/A time=00:24:04.23 bitrate=N/A speed=20.7x    [Parsed_ssim_10 @ 000002085e284f40] SSIM Y:0.993885 (22.136285) U:0.994424 (22.536876) V:0.994485 (22.584514) All:0.994075 (22.273178)
[out#0/null @ 000002085155d040] video:14902KiB audio:271260KiB subtitle:0KiB other streams:0KiB global headers:0KiB muxing overhead: unknown
frame=34681 fps=497 q=-0.0 Lsize=N/A time=00:24:06.48 bitrate=N/A speed=20.7x    
